<mxfile host="app.diagrams.net" modified="2023-05-10T11:08:17.628Z" agent="Mozilla/5.0 (X11; Linux x86_64; rv:109.0) Gecko/20100101 Firefox/112.0" etag="D6CpuOx-BBamr11DGKTP" version="21.2.9" type="device">
  <diagram name="Pagina-1" id="T02QbTDgPoGGjEeDtnpe">
    <mxGraphModel dx="1871" dy="470" grid="1" gridSize="10" guides="1" tooltips="1" connect="1" arrows="1" fold="1" page="1" pageScale="1" pageWidth="827" pageHeight="1169" math="0" shadow="0">
      <root>
        <mxCell id="0" />
        <mxCell id="1" parent="0" />
        <mxCell id="NvCyWqz4otH2OOCJtc-P-218" value="" style="ellipse;whiteSpace=wrap;html=1;" vertex="1" parent="1">
          <mxGeometry x="-95" y="136.5" width="265" height="108" as="geometry" />
        </mxCell>
        <mxCell id="NvCyWqz4otH2OOCJtc-P-187" style="edgeStyle=orthogonalEdgeStyle;rounded=0;orthogonalLoop=1;jettySize=auto;html=1;exitX=0;exitY=0.5;exitDx=0;exitDy=0;" edge="1" parent="1" source="NvCyWqz4otH2OOCJtc-P-185" target="JDJX8nyuoipbQ4rnlp5O-29">
          <mxGeometry relative="1" as="geometry" />
        </mxCell>
        <mxCell id="NvCyWqz4otH2OOCJtc-P-185" value="" style="ellipse;whiteSpace=wrap;html=1;" vertex="1" parent="1">
          <mxGeometry x="635" y="161" width="221" height="99" as="geometry" />
        </mxCell>
        <mxCell id="JDJX8nyuoipbQ4rnlp5O-28" value="&lt;div&gt;Utente&lt;/div&gt;" style="whiteSpace=wrap;html=1;align=center;fillColor=#fff2cc;strokeColor=#d6b656;" parent="1" vertex="1">
          <mxGeometry x="190" y="190" width="100" height="40" as="geometry" />
        </mxCell>
        <mxCell id="JDJX8nyuoipbQ4rnlp5O-29" value="Locale" style="whiteSpace=wrap;html=1;align=center;fillColor=#fff2cc;strokeColor=#d6b656;" parent="1" vertex="1">
          <mxGeometry x="501" y="190" width="100" height="40" as="geometry" />
        </mxCell>
        <mxCell id="JDJX8nyuoipbQ4rnlp5O-34" value="Evento" style="whiteSpace=wrap;html=1;align=center;fillColor=#fff2cc;strokeColor=#d6b656;" parent="1" vertex="1">
          <mxGeometry x="190" y="405" width="100" height="40" as="geometry" />
        </mxCell>
        <mxCell id="JDJX8nyuoipbQ4rnlp5O-53" value="" style="fontSize=12;html=1;endArrow=ERmany;startArrow=ERmany;rounded=0;exitX=0.5;exitY=0;exitDx=0;exitDy=0;entryX=0.5;entryY=1;entryDx=0;entryDy=0;" parent="1" source="JDJX8nyuoipbQ4rnlp5O-34" target="JDJX8nyuoipbQ4rnlp5O-28" edge="1">
          <mxGeometry width="100" height="100" relative="1" as="geometry">
            <mxPoint x="281" y="320" as="sourcePoint" />
            <mxPoint x="381" y="220" as="targetPoint" />
          </mxGeometry>
        </mxCell>
        <mxCell id="NvCyWqz4otH2OOCJtc-P-146" value="1,n" style="edgeLabel;html=1;align=center;verticalAlign=middle;resizable=0;points=[];" vertex="1" connectable="0" parent="JDJX8nyuoipbQ4rnlp5O-53">
          <mxGeometry x="-0.8522" relative="1" as="geometry">
            <mxPoint as="offset" />
          </mxGeometry>
        </mxCell>
        <mxCell id="NvCyWqz4otH2OOCJtc-P-147" value="1,n" style="edgeLabel;html=1;align=center;verticalAlign=middle;resizable=0;points=[];" vertex="1" connectable="0" parent="JDJX8nyuoipbQ4rnlp5O-53">
          <mxGeometry x="0.866" y="-2" relative="1" as="geometry">
            <mxPoint as="offset" />
          </mxGeometry>
        </mxCell>
        <mxCell id="JDJX8nyuoipbQ4rnlp5O-54" value="seguire" style="shape=rhombus;perimeter=rhombusPerimeter;whiteSpace=wrap;html=1;align=center;fillColor=#e1d5e7;strokeColor=#9673a6;" parent="1" vertex="1">
          <mxGeometry x="185" y="270" width="110" height="40" as="geometry" />
        </mxCell>
        <mxCell id="JDJX8nyuoipbQ4rnlp5O-55" value="" style="edgeStyle=entityRelationEdgeStyle;fontSize=12;html=1;endArrow=ERmany;startArrow=ERmany;rounded=0;exitX=1;exitY=0.5;exitDx=0;exitDy=0;entryX=0;entryY=0.5;entryDx=0;entryDy=0;" parent="1" source="JDJX8nyuoipbQ4rnlp5O-28" target="JDJX8nyuoipbQ4rnlp5O-29" edge="1">
          <mxGeometry width="100" height="100" relative="1" as="geometry">
            <mxPoint x="361" y="380" as="sourcePoint" />
            <mxPoint x="461" y="280" as="targetPoint" />
          </mxGeometry>
        </mxCell>
        <mxCell id="NvCyWqz4otH2OOCJtc-P-148" value="1,n" style="edgeLabel;html=1;align=center;verticalAlign=middle;resizable=0;points=[];" vertex="1" connectable="0" parent="JDJX8nyuoipbQ4rnlp5O-55">
          <mxGeometry x="-0.8892" y="-2" relative="1" as="geometry">
            <mxPoint as="offset" />
          </mxGeometry>
        </mxCell>
        <mxCell id="NvCyWqz4otH2OOCJtc-P-149" value="1,n" style="edgeLabel;html=1;align=center;verticalAlign=middle;resizable=0;points=[];" vertex="1" connectable="0" parent="JDJX8nyuoipbQ4rnlp5O-55">
          <mxGeometry x="0.817" y="-1" relative="1" as="geometry">
            <mxPoint as="offset" />
          </mxGeometry>
        </mxCell>
        <mxCell id="JDJX8nyuoipbQ4rnlp5O-56" value="seguire" style="shape=rhombus;perimeter=rhombusPerimeter;whiteSpace=wrap;html=1;align=center;fillColor=#e1d5e7;strokeColor=#9673a6;" parent="1" vertex="1">
          <mxGeometry x="361" y="190" width="100" height="40" as="geometry" />
        </mxCell>
        <mxCell id="JDJX8nyuoipbQ4rnlp5O-58" value="appartenere" style="shape=rhombus;perimeter=rhombusPerimeter;whiteSpace=wrap;html=1;align=center;fillColor=#e1d5e7;strokeColor=#9673a6;" parent="1" vertex="1">
          <mxGeometry x="313" y="320" width="79" height="40" as="geometry" />
        </mxCell>
        <mxCell id="NvCyWqz4otH2OOCJtc-P-27" value="" style="fontSize=12;html=1;endArrow=ERoneToMany;rounded=0;entryX=0.536;entryY=-0.027;entryDx=0;entryDy=0;exitX=0.5;exitY=1;exitDx=0;exitDy=0;entryPerimeter=0;" edge="1" parent="1" source="JDJX8nyuoipbQ4rnlp5O-29" target="NvCyWqz4otH2OOCJtc-P-30">
          <mxGeometry width="100" height="100" relative="1" as="geometry">
            <mxPoint x="590" y="230" as="sourcePoint" />
            <mxPoint x="590" y="480" as="targetPoint" />
          </mxGeometry>
        </mxCell>
        <mxCell id="NvCyWqz4otH2OOCJtc-P-134" value="&lt;div&gt;1,n&lt;/div&gt;" style="edgeLabel;html=1;align=center;verticalAlign=middle;resizable=0;points=[];" vertex="1" connectable="0" parent="NvCyWqz4otH2OOCJtc-P-27">
          <mxGeometry x="0.9373" y="1" relative="1" as="geometry">
            <mxPoint as="offset" />
          </mxGeometry>
        </mxCell>
        <mxCell id="NvCyWqz4otH2OOCJtc-P-135" value="1,n" style="edgeLabel;html=1;align=center;verticalAlign=middle;resizable=0;points=[];" vertex="1" connectable="0" parent="NvCyWqz4otH2OOCJtc-P-27">
          <mxGeometry x="-0.9463" relative="1" as="geometry">
            <mxPoint as="offset" />
          </mxGeometry>
        </mxCell>
        <mxCell id="NvCyWqz4otH2OOCJtc-P-28" value="&lt;div&gt;possedere&lt;/div&gt;" style="shape=rhombus;perimeter=rhombusPerimeter;whiteSpace=wrap;html=1;align=center;fillColor=#e1d5e7;strokeColor=#9673a6;" vertex="1" parent="1">
          <mxGeometry x="501" y="410" width="100" height="50" as="geometry" />
        </mxCell>
        <mxCell id="NvCyWqz4otH2OOCJtc-P-30" value="posto" style="whiteSpace=wrap;html=1;align=center;fillColor=#fff2cc;strokeColor=#d6b656;" vertex="1" parent="1">
          <mxGeometry x="499" y="565" width="100" height="40" as="geometry" />
        </mxCell>
        <mxCell id="NvCyWqz4otH2OOCJtc-P-32" value="" style="edgeStyle=orthogonalEdgeStyle;fontSize=12;html=1;endArrow=ERoneToMany;rounded=0;exitX=0;exitY=0.5;exitDx=0;exitDy=0;entryX=0.001;entryY=0.601;entryDx=0;entryDy=0;entryPerimeter=0;" edge="1" parent="1" source="JDJX8nyuoipbQ4rnlp5O-28" target="NvCyWqz4otH2OOCJtc-P-30">
          <mxGeometry width="100" height="100" relative="1" as="geometry">
            <mxPoint x="440" y="410" as="sourcePoint" />
            <mxPoint x="420" y="390" as="targetPoint" />
          </mxGeometry>
        </mxCell>
        <mxCell id="NvCyWqz4otH2OOCJtc-P-160" value="1,n" style="edgeLabel;html=1;align=center;verticalAlign=middle;resizable=0;points=[];" vertex="1" connectable="0" parent="NvCyWqz4otH2OOCJtc-P-32">
          <mxGeometry x="-0.9134" y="2" relative="1" as="geometry">
            <mxPoint as="offset" />
          </mxGeometry>
        </mxCell>
        <mxCell id="NvCyWqz4otH2OOCJtc-P-161" value="1,1" style="edgeLabel;html=1;align=center;verticalAlign=middle;resizable=0;points=[];" vertex="1" connectable="0" parent="NvCyWqz4otH2OOCJtc-P-32">
          <mxGeometry x="0.9586" relative="1" as="geometry">
            <mxPoint as="offset" />
          </mxGeometry>
        </mxCell>
        <mxCell id="NvCyWqz4otH2OOCJtc-P-33" value="prenotare" style="shape=rhombus;perimeter=rhombusPerimeter;whiteSpace=wrap;html=1;align=center;fillColor=#e1d5e7;strokeColor=#9673a6;" vertex="1" parent="1">
          <mxGeometry x="259" y="564" width="120" height="50" as="geometry" />
        </mxCell>
        <mxCell id="NvCyWqz4otH2OOCJtc-P-38" value="amministrare" style="shape=rhombus;perimeter=rhombusPerimeter;whiteSpace=wrap;html=1;align=center;fillColor=#e1d5e7;strokeColor=#9673a6;" vertex="1" parent="1">
          <mxGeometry x="341" y="120" width="120" height="50" as="geometry" />
        </mxCell>
        <mxCell id="NvCyWqz4otH2OOCJtc-P-42" value="" style="endArrow=none;html=1;rounded=0;entryX=0.179;entryY=0.679;entryDx=0;entryDy=0;entryPerimeter=0;exitX=1;exitY=0;exitDx=0;exitDy=0;" edge="1" parent="1" source="JDJX8nyuoipbQ4rnlp5O-28" target="NvCyWqz4otH2OOCJtc-P-38">
          <mxGeometry width="50" height="50" relative="1" as="geometry">
            <mxPoint x="490" y="270" as="sourcePoint" />
            <mxPoint x="540" y="220" as="targetPoint" />
          </mxGeometry>
        </mxCell>
        <mxCell id="NvCyWqz4otH2OOCJtc-P-151" value="1,n" style="edgeLabel;html=1;align=center;verticalAlign=middle;resizable=0;points=[];" vertex="1" connectable="0" parent="NvCyWqz4otH2OOCJtc-P-42">
          <mxGeometry x="-0.7264" y="-1" relative="1" as="geometry">
            <mxPoint as="offset" />
          </mxGeometry>
        </mxCell>
        <mxCell id="NvCyWqz4otH2OOCJtc-P-43" value="" style="endArrow=none;html=1;rounded=0;entryX=0.851;entryY=0.642;entryDx=0;entryDy=0;entryPerimeter=0;exitX=0;exitY=0;exitDx=0;exitDy=0;" edge="1" parent="1" source="JDJX8nyuoipbQ4rnlp5O-29" target="NvCyWqz4otH2OOCJtc-P-38">
          <mxGeometry width="50" height="50" relative="1" as="geometry">
            <mxPoint x="490" y="270" as="sourcePoint" />
            <mxPoint x="540" y="220" as="targetPoint" />
          </mxGeometry>
        </mxCell>
        <mxCell id="NvCyWqz4otH2OOCJtc-P-152" value="1,n" style="edgeLabel;html=1;align=center;verticalAlign=middle;resizable=0;points=[];" vertex="1" connectable="0" parent="NvCyWqz4otH2OOCJtc-P-43">
          <mxGeometry x="-0.69" y="1" relative="1" as="geometry">
            <mxPoint as="offset" />
          </mxGeometry>
        </mxCell>
        <mxCell id="NvCyWqz4otH2OOCJtc-P-44" value="&lt;div&gt;Post&lt;/div&gt;" style="whiteSpace=wrap;html=1;align=center;fillColor=#fff2cc;strokeColor=#d6b656;" vertex="1" parent="1">
          <mxGeometry x="499" y="20" width="100" height="40" as="geometry" />
        </mxCell>
        <mxCell id="NvCyWqz4otH2OOCJtc-P-45" value="" style="endArrow=none;html=1;rounded=0;entryX=0.465;entryY=1;entryDx=0;entryDy=0;entryPerimeter=0;exitX=0.5;exitY=0;exitDx=0;exitDy=0;" edge="1" parent="1" source="NvCyWqz4otH2OOCJtc-P-46" target="NvCyWqz4otH2OOCJtc-P-44">
          <mxGeometry width="50" height="50" relative="1" as="geometry">
            <mxPoint x="490" y="140" as="sourcePoint" />
            <mxPoint x="540" y="90" as="targetPoint" />
          </mxGeometry>
        </mxCell>
        <mxCell id="NvCyWqz4otH2OOCJtc-P-156" value="1,1" style="edgeLabel;html=1;align=center;verticalAlign=middle;resizable=0;points=[];" vertex="1" connectable="0" parent="NvCyWqz4otH2OOCJtc-P-45">
          <mxGeometry x="0.655" relative="1" as="geometry">
            <mxPoint as="offset" />
          </mxGeometry>
        </mxCell>
        <mxCell id="NvCyWqz4otH2OOCJtc-P-47" value="" style="endArrow=none;html=1;rounded=0;exitX=0.5;exitY=0;exitDx=0;exitDy=0;" edge="1" parent="1" source="JDJX8nyuoipbQ4rnlp5O-28" target="NvCyWqz4otH2OOCJtc-P-48">
          <mxGeometry width="50" height="50" relative="1" as="geometry">
            <mxPoint x="80" y="120" as="sourcePoint" />
            <mxPoint x="130" y="70" as="targetPoint" />
          </mxGeometry>
        </mxCell>
        <mxCell id="NvCyWqz4otH2OOCJtc-P-150" value="1,n" style="edgeLabel;html=1;align=center;verticalAlign=middle;resizable=0;points=[];" vertex="1" connectable="0" parent="NvCyWqz4otH2OOCJtc-P-47">
          <mxGeometry x="-0.7994" y="1" relative="1" as="geometry">
            <mxPoint as="offset" />
          </mxGeometry>
        </mxCell>
        <mxCell id="NvCyWqz4otH2OOCJtc-P-48" value="piacere" style="shape=rhombus;perimeter=rhombusPerimeter;whiteSpace=wrap;html=1;align=center;fillColor=#e1d5e7;strokeColor=#9673a6;" vertex="1" parent="1">
          <mxGeometry x="175" y="10" width="120" height="60" as="geometry" />
        </mxCell>
        <mxCell id="NvCyWqz4otH2OOCJtc-P-49" value="" style="endArrow=none;html=1;rounded=0;exitX=1;exitY=0.5;exitDx=0;exitDy=0;entryX=0;entryY=0.5;entryDx=0;entryDy=0;" edge="1" parent="1" source="NvCyWqz4otH2OOCJtc-P-48" target="NvCyWqz4otH2OOCJtc-P-44">
          <mxGeometry width="50" height="50" relative="1" as="geometry">
            <mxPoint x="480" y="190" as="sourcePoint" />
            <mxPoint x="499.6400000000001" y="23.80000000000001" as="targetPoint" />
          </mxGeometry>
        </mxCell>
        <mxCell id="NvCyWqz4otH2OOCJtc-P-158" value="1,n" style="edgeLabel;html=1;align=center;verticalAlign=middle;resizable=0;points=[];" vertex="1" connectable="0" parent="NvCyWqz4otH2OOCJtc-P-49">
          <mxGeometry x="0.903" relative="1" as="geometry">
            <mxPoint as="offset" />
          </mxGeometry>
        </mxCell>
        <mxCell id="NvCyWqz4otH2OOCJtc-P-46" value="pubblicare" style="shape=rhombus;perimeter=rhombusPerimeter;whiteSpace=wrap;html=1;align=center;fillColor=#e1d5e7;strokeColor=#9673a6;" vertex="1" parent="1">
          <mxGeometry x="489" y="90" width="120" height="60" as="geometry" />
        </mxCell>
        <mxCell id="NvCyWqz4otH2OOCJtc-P-52" value="" style="endArrow=none;html=1;rounded=0;exitX=0.5;exitY=0;exitDx=0;exitDy=0;entryX=0.5;entryY=1;entryDx=0;entryDy=0;" edge="1" parent="1" source="JDJX8nyuoipbQ4rnlp5O-29" target="NvCyWqz4otH2OOCJtc-P-46">
          <mxGeometry width="50" height="50" relative="1" as="geometry">
            <mxPoint x="360" y="190" as="sourcePoint" />
            <mxPoint x="410" y="140" as="targetPoint" />
          </mxGeometry>
        </mxCell>
        <mxCell id="NvCyWqz4otH2OOCJtc-P-153" value="1,n" style="edgeLabel;html=1;align=center;verticalAlign=middle;resizable=0;points=[];" vertex="1" connectable="0" parent="NvCyWqz4otH2OOCJtc-P-52">
          <mxGeometry x="-0.5898" y="-1" relative="1" as="geometry">
            <mxPoint as="offset" />
          </mxGeometry>
        </mxCell>
        <mxCell id="NvCyWqz4otH2OOCJtc-P-53" value="servizi" style="whiteSpace=wrap;html=1;align=center;fillColor=#fff2cc;strokeColor=#d6b656;" vertex="1" parent="1">
          <mxGeometry x="440" y="340" width="100" height="40" as="geometry" />
        </mxCell>
        <mxCell id="NvCyWqz4otH2OOCJtc-P-55" value="&lt;div&gt;possedere&lt;/div&gt;" style="shape=rhombus;perimeter=rhombusPerimeter;whiteSpace=wrap;html=1;align=center;fillColor=#e1d5e7;strokeColor=#9673a6;" vertex="1" parent="1">
          <mxGeometry x="450" y="270" width="100" height="40" as="geometry" />
        </mxCell>
        <mxCell id="NvCyWqz4otH2OOCJtc-P-62" value="" style="endArrow=none;html=1;rounded=0;entryX=0;entryY=1;entryDx=0;entryDy=0;exitX=0.818;exitY=0.018;exitDx=0;exitDy=0;exitPerimeter=0;" edge="1" parent="1" source="JDJX8nyuoipbQ4rnlp5O-34" target="JDJX8nyuoipbQ4rnlp5O-58">
          <mxGeometry width="50" height="50" relative="1" as="geometry">
            <mxPoint x="410" y="400" as="sourcePoint" />
            <mxPoint x="460" y="350" as="targetPoint" />
          </mxGeometry>
        </mxCell>
        <mxCell id="NvCyWqz4otH2OOCJtc-P-145" value="1,1" style="edgeLabel;html=1;align=center;verticalAlign=middle;resizable=0;points=[];" vertex="1" connectable="0" parent="NvCyWqz4otH2OOCJtc-P-62">
          <mxGeometry x="-0.7498" relative="1" as="geometry">
            <mxPoint as="offset" />
          </mxGeometry>
        </mxCell>
        <mxCell id="NvCyWqz4otH2OOCJtc-P-63" value="" style="endArrow=none;html=1;rounded=0;entryX=0;entryY=0.75;entryDx=0;entryDy=0;exitX=0.643;exitY=0.143;exitDx=0;exitDy=0;exitPerimeter=0;" edge="1" parent="1" source="JDJX8nyuoipbQ4rnlp5O-58" target="JDJX8nyuoipbQ4rnlp5O-29">
          <mxGeometry width="50" height="50" relative="1" as="geometry">
            <mxPoint x="410" y="400" as="sourcePoint" />
            <mxPoint x="460" y="350" as="targetPoint" />
          </mxGeometry>
        </mxCell>
        <mxCell id="NvCyWqz4otH2OOCJtc-P-144" value="1,n" style="edgeLabel;html=1;align=center;verticalAlign=middle;resizable=0;points=[];" vertex="1" connectable="0" parent="NvCyWqz4otH2OOCJtc-P-63">
          <mxGeometry x="0.8315" y="-3" relative="1" as="geometry">
            <mxPoint as="offset" />
          </mxGeometry>
        </mxCell>
        <mxCell id="NvCyWqz4otH2OOCJtc-P-66" value="" style="endArrow=none;html=1;rounded=0;entryX=0.25;entryY=1;entryDx=0;entryDy=0;exitX=0.5;exitY=0;exitDx=0;exitDy=0;" edge="1" parent="1" source="NvCyWqz4otH2OOCJtc-P-55" target="JDJX8nyuoipbQ4rnlp5O-29">
          <mxGeometry width="50" height="50" relative="1" as="geometry">
            <mxPoint x="480" y="300" as="sourcePoint" />
            <mxPoint x="530" y="250" as="targetPoint" />
          </mxGeometry>
        </mxCell>
        <mxCell id="NvCyWqz4otH2OOCJtc-P-143" value="1,n" style="edgeLabel;html=1;align=center;verticalAlign=middle;resizable=0;points=[];" vertex="1" connectable="0" parent="NvCyWqz4otH2OOCJtc-P-66">
          <mxGeometry x="0.5549" relative="1" as="geometry">
            <mxPoint as="offset" />
          </mxGeometry>
        </mxCell>
        <mxCell id="NvCyWqz4otH2OOCJtc-P-67" value="" style="endArrow=none;html=1;rounded=0;entryX=0.5;entryY=1;entryDx=0;entryDy=0;exitX=0.5;exitY=0;exitDx=0;exitDy=0;" edge="1" parent="1" source="NvCyWqz4otH2OOCJtc-P-53" target="NvCyWqz4otH2OOCJtc-P-55">
          <mxGeometry width="50" height="50" relative="1" as="geometry">
            <mxPoint x="380" y="370" as="sourcePoint" />
            <mxPoint x="430" y="320" as="targetPoint" />
          </mxGeometry>
        </mxCell>
        <mxCell id="NvCyWqz4otH2OOCJtc-P-142" value="1,n" style="edgeLabel;html=1;align=center;verticalAlign=middle;resizable=0;points=[];" vertex="1" connectable="0" parent="NvCyWqz4otH2OOCJtc-P-67">
          <mxGeometry x="-0.4713" relative="1" as="geometry">
            <mxPoint as="offset" />
          </mxGeometry>
        </mxCell>
        <mxCell id="NvCyWqz4otH2OOCJtc-P-99" value="&lt;div&gt;Orario&lt;/div&gt;" style="whiteSpace=wrap;html=1;align=center;fillColor=#fff2cc;strokeColor=#d6b656;" vertex="1" parent="1">
          <mxGeometry x="670" y="40" width="100" height="40" as="geometry" />
        </mxCell>
        <mxCell id="NvCyWqz4otH2OOCJtc-P-100" value="ammettere" style="shape=rhombus;perimeter=rhombusPerimeter;whiteSpace=wrap;html=1;align=center;fillColor=#e1d5e7;strokeColor=#9673a6;" vertex="1" parent="1">
          <mxGeometry x="630" y="120" width="110" height="40" as="geometry" />
        </mxCell>
        <mxCell id="NvCyWqz4otH2OOCJtc-P-101" value="" style="endArrow=none;html=1;rounded=0;entryX=0;entryY=1;entryDx=0;entryDy=0;exitX=0.75;exitY=0;exitDx=0;exitDy=0;" edge="1" parent="1" source="JDJX8nyuoipbQ4rnlp5O-29" target="NvCyWqz4otH2OOCJtc-P-100">
          <mxGeometry width="50" height="50" relative="1" as="geometry">
            <mxPoint x="380" y="250" as="sourcePoint" />
            <mxPoint x="430" y="200" as="targetPoint" />
          </mxGeometry>
        </mxCell>
        <mxCell id="NvCyWqz4otH2OOCJtc-P-154" value="1,n" style="edgeLabel;html=1;align=center;verticalAlign=middle;resizable=0;points=[];" vertex="1" connectable="0" parent="NvCyWqz4otH2OOCJtc-P-101">
          <mxGeometry x="-0.6299" y="1" relative="1" as="geometry">
            <mxPoint as="offset" />
          </mxGeometry>
        </mxCell>
        <mxCell id="NvCyWqz4otH2OOCJtc-P-102" value="" style="endArrow=none;html=1;rounded=0;entryX=0.5;entryY=1;entryDx=0;entryDy=0;" edge="1" parent="1" source="NvCyWqz4otH2OOCJtc-P-100" target="NvCyWqz4otH2OOCJtc-P-99">
          <mxGeometry width="50" height="50" relative="1" as="geometry">
            <mxPoint x="380" y="250" as="sourcePoint" />
            <mxPoint x="430" y="200" as="targetPoint" />
          </mxGeometry>
        </mxCell>
        <mxCell id="NvCyWqz4otH2OOCJtc-P-155" value="1,n" style="edgeLabel;html=1;align=center;verticalAlign=middle;resizable=0;points=[];" vertex="1" connectable="0" parent="NvCyWqz4otH2OOCJtc-P-102">
          <mxGeometry x="0.6336" y="1" relative="1" as="geometry">
            <mxPoint x="-1" as="offset" />
          </mxGeometry>
        </mxCell>
        <mxCell id="NvCyWqz4otH2OOCJtc-P-108" value="&lt;div&gt;comune&lt;/div&gt;" style="whiteSpace=wrap;html=1;align=center;fillColor=#fff2cc;strokeColor=#d6b656;" vertex="1" parent="1">
          <mxGeometry x="640" y="430" width="100" height="40" as="geometry" />
        </mxCell>
        <mxCell id="NvCyWqz4otH2OOCJtc-P-109" value="regione" style="whiteSpace=wrap;html=1;align=center;fillColor=#fff2cc;strokeColor=#d6b656;" vertex="1" parent="1">
          <mxGeometry x="640" y="564" width="100" height="40" as="geometry" />
        </mxCell>
        <mxCell id="NvCyWqz4otH2OOCJtc-P-111" value="" style="endArrow=none;html=1;rounded=0;entryX=0.814;entryY=1.121;entryDx=0;entryDy=0;exitX=0.323;exitY=0.08;exitDx=0;exitDy=0;entryPerimeter=0;exitPerimeter=0;" edge="1" parent="1" source="NvCyWqz4otH2OOCJtc-P-174" target="JDJX8nyuoipbQ4rnlp5O-29">
          <mxGeometry width="50" height="50" relative="1" as="geometry">
            <mxPoint x="720" y="210" as="sourcePoint" />
            <mxPoint x="570" y="240" as="targetPoint" />
            <Array as="points" />
          </mxGeometry>
        </mxCell>
        <mxCell id="NvCyWqz4otH2OOCJtc-P-137" value="1,1" style="edgeLabel;html=1;align=center;verticalAlign=middle;resizable=0;points=[];" vertex="1" connectable="0" parent="NvCyWqz4otH2OOCJtc-P-111">
          <mxGeometry x="0.7916" y="2" relative="1" as="geometry">
            <mxPoint as="offset" />
          </mxGeometry>
        </mxCell>
        <mxCell id="NvCyWqz4otH2OOCJtc-P-112" value="" style="endArrow=none;html=1;rounded=0;entryX=0.5;entryY=1;entryDx=0;entryDy=0;exitX=0.5;exitY=0;exitDx=0;exitDy=0;" edge="1" parent="1" source="NvCyWqz4otH2OOCJtc-P-114" target="NvCyWqz4otH2OOCJtc-P-108">
          <mxGeometry width="50" height="50" relative="1" as="geometry">
            <mxPoint x="730" y="410" as="sourcePoint" />
            <mxPoint x="780" y="360" as="targetPoint" />
          </mxGeometry>
        </mxCell>
        <mxCell id="NvCyWqz4otH2OOCJtc-P-140" value="1,1" style="edgeLabel;html=1;align=center;verticalAlign=middle;resizable=0;points=[];" vertex="1" connectable="0" parent="NvCyWqz4otH2OOCJtc-P-112">
          <mxGeometry x="0.8886" y="-1" relative="1" as="geometry">
            <mxPoint as="offset" />
          </mxGeometry>
        </mxCell>
        <mxCell id="NvCyWqz4otH2OOCJtc-P-162" value="id_locale" style="ellipse;whiteSpace=wrap;html=1;align=center;fontStyle=4;" vertex="1" parent="1">
          <mxGeometry x="785.5" y="192" width="71" height="20" as="geometry" />
        </mxCell>
        <mxCell id="NvCyWqz4otH2OOCJtc-P-165" value="1,1" style="endArrow=none;html=1;rounded=0;entryX=0.5;entryY=1;entryDx=0;entryDy=0;exitX=0.5;exitY=0;exitDx=0;exitDy=0;" edge="1" parent="1" source="NvCyWqz4otH2OOCJtc-P-113" target="NvCyWqz4otH2OOCJtc-P-164">
          <mxGeometry width="50" height="50" relative="1" as="geometry">
            <mxPoint x="690" y="380" as="sourcePoint" />
            <mxPoint x="582" y="235" as="targetPoint" />
            <Array as="points" />
          </mxGeometry>
        </mxCell>
        <mxCell id="NvCyWqz4otH2OOCJtc-P-164" value="zona" style="whiteSpace=wrap;html=1;align=center;fillColor=#fff2cc;strokeColor=#d6b656;" vertex="1" parent="1">
          <mxGeometry x="650" y="310" width="80" height="30" as="geometry" />
        </mxCell>
        <mxCell id="NvCyWqz4otH2OOCJtc-P-168" value="" style="endArrow=none;html=1;rounded=0;entryX=0.5;entryY=1;entryDx=0;entryDy=0;exitX=0.5;exitY=0;exitDx=0;exitDy=0;" edge="1" parent="1" source="NvCyWqz4otH2OOCJtc-P-109" target="NvCyWqz4otH2OOCJtc-P-114">
          <mxGeometry width="50" height="50" relative="1" as="geometry">
            <mxPoint x="690" y="564" as="sourcePoint" />
            <mxPoint x="690" y="420" as="targetPoint" />
          </mxGeometry>
        </mxCell>
        <mxCell id="NvCyWqz4otH2OOCJtc-P-170" value="1,n" style="edgeLabel;html=1;align=center;verticalAlign=middle;resizable=0;points=[];" vertex="1" connectable="0" parent="NvCyWqz4otH2OOCJtc-P-168">
          <mxGeometry x="-0.8621" y="-1" relative="1" as="geometry">
            <mxPoint as="offset" />
          </mxGeometry>
        </mxCell>
        <mxCell id="NvCyWqz4otH2OOCJtc-P-114" value="appartenere" style="shape=rhombus;perimeter=rhombusPerimeter;whiteSpace=wrap;html=1;align=center;fillColor=#e1d5e7;strokeColor=#9673a6;" vertex="1" parent="1">
          <mxGeometry x="635" y="490" width="110" height="40" as="geometry" />
        </mxCell>
        <mxCell id="NvCyWqz4otH2OOCJtc-P-171" value="" style="endArrow=none;html=1;rounded=0;entryX=0.5;entryY=1;entryDx=0;entryDy=0;exitX=0.5;exitY=0;exitDx=0;exitDy=0;" edge="1" parent="1" source="NvCyWqz4otH2OOCJtc-P-108" target="NvCyWqz4otH2OOCJtc-P-113">
          <mxGeometry width="50" height="50" relative="1" as="geometry">
            <mxPoint x="690" y="380" as="sourcePoint" />
            <mxPoint x="645" y="304" as="targetPoint" />
            <Array as="points" />
          </mxGeometry>
        </mxCell>
        <mxCell id="NvCyWqz4otH2OOCJtc-P-172" value="1,n" style="edgeLabel;html=1;align=center;verticalAlign=middle;resizable=0;points=[];" vertex="1" connectable="0" parent="NvCyWqz4otH2OOCJtc-P-171">
          <mxGeometry x="-0.876" relative="1" as="geometry">
            <mxPoint as="offset" />
          </mxGeometry>
        </mxCell>
        <mxCell id="NvCyWqz4otH2OOCJtc-P-113" value="trovarsi" style="shape=rhombus;perimeter=rhombusPerimeter;whiteSpace=wrap;html=1;align=center;fillColor=#e1d5e7;strokeColor=#9673a6;" vertex="1" parent="1">
          <mxGeometry x="645.5" y="365" width="89" height="40" as="geometry" />
        </mxCell>
        <mxCell id="NvCyWqz4otH2OOCJtc-P-175" value="" style="endArrow=none;html=1;rounded=0;entryX=1;entryY=1;entryDx=0;entryDy=0;exitX=0.5;exitY=0;exitDx=0;exitDy=0;" edge="1" parent="1" source="NvCyWqz4otH2OOCJtc-P-164" target="NvCyWqz4otH2OOCJtc-P-174">
          <mxGeometry width="50" height="50" relative="1" as="geometry">
            <mxPoint x="690" y="300" as="sourcePoint" />
            <mxPoint x="582" y="235" as="targetPoint" />
            <Array as="points" />
          </mxGeometry>
        </mxCell>
        <mxCell id="NvCyWqz4otH2OOCJtc-P-177" value="1,n" style="edgeLabel;html=1;align=center;verticalAlign=middle;resizable=0;points=[];" vertex="1" connectable="0" parent="NvCyWqz4otH2OOCJtc-P-175">
          <mxGeometry x="-0.5436" y="1" relative="1" as="geometry">
            <mxPoint x="-8" y="-6" as="offset" />
          </mxGeometry>
        </mxCell>
        <mxCell id="NvCyWqz4otH2OOCJtc-P-174" value="ubicare" style="shape=rhombus;perimeter=rhombusPerimeter;whiteSpace=wrap;html=1;align=center;fillColor=#e1d5e7;strokeColor=#9673a6;" vertex="1" parent="1">
          <mxGeometry x="589" y="260" width="90" height="40" as="geometry" />
        </mxCell>
        <mxCell id="NvCyWqz4otH2OOCJtc-P-178" value="indirizzo" style="ellipse;whiteSpace=wrap;html=1;align=center;" vertex="1" parent="1">
          <mxGeometry x="645.5" y="190" width="70" height="20" as="geometry" />
        </mxCell>
        <mxCell id="NvCyWqz4otH2OOCJtc-P-179" value="nome" style="ellipse;whiteSpace=wrap;html=1;align=center;" vertex="1" parent="1">
          <mxGeometry x="675" y="170" width="70" height="20" as="geometry" />
        </mxCell>
        <mxCell id="NvCyWqz4otH2OOCJtc-P-180" value="tipologia" style="ellipse;whiteSpace=wrap;html=1;align=center;" vertex="1" parent="1">
          <mxGeometry x="745" y="170" width="70" height="20" as="geometry" />
        </mxCell>
        <mxCell id="NvCyWqz4otH2OOCJtc-P-181" value="foto_profilo" style="ellipse;whiteSpace=wrap;html=1;align=center;" vertex="1" parent="1">
          <mxGeometry x="745" y="212" width="70" height="20" as="geometry" />
        </mxCell>
        <mxCell id="NvCyWqz4otH2OOCJtc-P-182" value="visibilità" style="ellipse;whiteSpace=wrap;html=1;align=center;" vertex="1" parent="1">
          <mxGeometry x="715.5" y="192" width="70" height="20" as="geometry" />
        </mxCell>
        <mxCell id="NvCyWqz4otH2OOCJtc-P-183" value="descrizione" style="ellipse;whiteSpace=wrap;html=1;align=center;" vertex="1" parent="1">
          <mxGeometry x="672" y="212" width="70" height="20" as="geometry" />
        </mxCell>
        <mxCell id="NvCyWqz4otH2OOCJtc-P-184" value="recapito" style="ellipse;whiteSpace=wrap;html=1;align=center;" vertex="1" parent="1">
          <mxGeometry x="700" y="232" width="70" height="20" as="geometry" />
        </mxCell>
        <mxCell id="NvCyWqz4otH2OOCJtc-P-186" style="edgeStyle=orthogonalEdgeStyle;rounded=0;orthogonalLoop=1;jettySize=auto;html=1;exitX=0.5;exitY=1;exitDx=0;exitDy=0;" edge="1" parent="1" source="NvCyWqz4otH2OOCJtc-P-181" target="NvCyWqz4otH2OOCJtc-P-181">
          <mxGeometry relative="1" as="geometry" />
        </mxCell>
        <mxCell id="NvCyWqz4otH2OOCJtc-P-188" value="id_zona" style="ellipse;whiteSpace=wrap;html=1;align=center;fontStyle=4;" vertex="1" parent="1">
          <mxGeometry x="742" y="272" width="58" height="30" as="geometry" />
        </mxCell>
        <mxCell id="NvCyWqz4otH2OOCJtc-P-189" value="nome_zona" style="ellipse;whiteSpace=wrap;html=1;align=center;" vertex="1" parent="1">
          <mxGeometry x="773" y="302" width="70" height="20" as="geometry" />
        </mxCell>
        <mxCell id="NvCyWqz4otH2OOCJtc-P-192" value="" style="endArrow=none;html=1;rounded=0;exitX=1;exitY=0.5;exitDx=0;exitDy=0;entryX=0;entryY=0.5;entryDx=0;entryDy=0;" edge="1" parent="1" source="NvCyWqz4otH2OOCJtc-P-164" target="NvCyWqz4otH2OOCJtc-P-189">
          <mxGeometry width="50" height="50" relative="1" as="geometry">
            <mxPoint x="710" y="370" as="sourcePoint" />
            <mxPoint x="760" y="320" as="targetPoint" />
          </mxGeometry>
        </mxCell>
        <mxCell id="NvCyWqz4otH2OOCJtc-P-193" value="" style="endArrow=none;html=1;rounded=0;entryX=0;entryY=1;entryDx=0;entryDy=0;" edge="1" parent="1" target="NvCyWqz4otH2OOCJtc-P-188">
          <mxGeometry width="50" height="50" relative="1" as="geometry">
            <mxPoint x="730" y="320" as="sourcePoint" />
            <mxPoint x="760" y="290" as="targetPoint" />
          </mxGeometry>
        </mxCell>
        <mxCell id="NvCyWqz4otH2OOCJtc-P-196" value="id_comune" style="ellipse;whiteSpace=wrap;html=1;align=center;fontStyle=4;" vertex="1" parent="1">
          <mxGeometry x="770" y="400" width="80" height="45" as="geometry" />
        </mxCell>
        <mxCell id="NvCyWqz4otH2OOCJtc-P-197" value="nome_comune" style="ellipse;whiteSpace=wrap;html=1;align=center;" vertex="1" parent="1">
          <mxGeometry x="758" y="449" width="98" height="25" as="geometry" />
        </mxCell>
        <mxCell id="NvCyWqz4otH2OOCJtc-P-198" value="" style="endArrow=none;html=1;rounded=0;exitX=1;exitY=0.5;exitDx=0;exitDy=0;entryX=-0.018;entryY=0.621;entryDx=0;entryDy=0;entryPerimeter=0;" edge="1" parent="1" source="NvCyWqz4otH2OOCJtc-P-108" target="NvCyWqz4otH2OOCJtc-P-196">
          <mxGeometry width="50" height="50" relative="1" as="geometry">
            <mxPoint x="720.5" y="474" as="sourcePoint" />
            <mxPoint x="770.5" y="424" as="targetPoint" />
          </mxGeometry>
        </mxCell>
        <mxCell id="NvCyWqz4otH2OOCJtc-P-199" value="" style="endArrow=none;html=1;rounded=0;exitX=0;exitY=0.5;exitDx=0;exitDy=0;entryX=1;entryY=0.5;entryDx=0;entryDy=0;" edge="1" parent="1" source="NvCyWqz4otH2OOCJtc-P-197" target="NvCyWqz4otH2OOCJtc-P-108">
          <mxGeometry width="50" height="50" relative="1" as="geometry">
            <mxPoint x="750" y="460" as="sourcePoint" />
            <mxPoint x="779" y="438" as="targetPoint" />
          </mxGeometry>
        </mxCell>
        <mxCell id="NvCyWqz4otH2OOCJtc-P-201" value="id_regione" style="ellipse;whiteSpace=wrap;html=1;align=center;fontStyle=4;" vertex="1" parent="1">
          <mxGeometry x="764" y="548" width="80" height="45" as="geometry" />
        </mxCell>
        <mxCell id="NvCyWqz4otH2OOCJtc-P-202" value="nome_regione" style="ellipse;whiteSpace=wrap;html=1;align=center;" vertex="1" parent="1">
          <mxGeometry x="752" y="597" width="98" height="25" as="geometry" />
        </mxCell>
        <mxCell id="NvCyWqz4otH2OOCJtc-P-203" value="" style="endArrow=none;html=1;rounded=0;exitX=1;exitY=0.5;exitDx=0;exitDy=0;entryX=0;entryY=0.5;entryDx=0;entryDy=0;" edge="1" parent="1" source="NvCyWqz4otH2OOCJtc-P-109" target="NvCyWqz4otH2OOCJtc-P-201">
          <mxGeometry width="50" height="50" relative="1" as="geometry">
            <mxPoint x="715.5" y="622" as="sourcePoint" />
            <mxPoint x="760" y="572" as="targetPoint" />
          </mxGeometry>
        </mxCell>
        <mxCell id="NvCyWqz4otH2OOCJtc-P-204" value="" style="endArrow=none;html=1;rounded=0;exitX=1;exitY=0.5;exitDx=0;exitDy=0;" edge="1" parent="1" source="NvCyWqz4otH2OOCJtc-P-109" target="NvCyWqz4otH2OOCJtc-P-202">
          <mxGeometry width="50" height="50" relative="1" as="geometry">
            <mxPoint x="750" y="594" as="sourcePoint" />
            <mxPoint x="770" y="582" as="targetPoint" />
          </mxGeometry>
        </mxCell>
        <mxCell id="NvCyWqz4otH2OOCJtc-P-206" value="assumiamo che tutti i locali abbiano infiniti posti" style="text;html=1;align=center;verticalAlign=middle;resizable=0;points=[];autosize=1;strokeColor=none;fillColor=none;" vertex="1" parent="1">
          <mxGeometry x="139" y="660" width="280" height="30" as="geometry" />
        </mxCell>
        <mxCell id="NvCyWqz4otH2OOCJtc-P-207" value="assumiamo che tutti gli eventi si svolgano in un locale" style="text;html=1;align=center;verticalAlign=middle;resizable=0;points=[];autosize=1;strokeColor=none;fillColor=none;" vertex="1" parent="1">
          <mxGeometry x="124" y="700" width="310" height="30" as="geometry" />
        </mxCell>
        <mxCell id="NvCyWqz4otH2OOCJtc-P-208" value="assumiamo che le fasce orarie siano predefinite per tutti i locali" style="text;html=1;align=center;verticalAlign=middle;resizable=0;points=[];autosize=1;strokeColor=none;fillColor=none;" vertex="1" parent="1">
          <mxGeometry x="110" y="740" width="360" height="30" as="geometry" />
        </mxCell>
        <mxCell id="NvCyWqz4otH2OOCJtc-P-209" value="id_utente" style="ellipse;whiteSpace=wrap;html=1;align=center;fontStyle=4;" vertex="1" parent="1">
          <mxGeometry x="-90" y="185" width="90" height="30" as="geometry" />
        </mxCell>
        <mxCell id="NvCyWqz4otH2OOCJtc-P-211" value="ruolo" style="ellipse;whiteSpace=wrap;html=1;align=center;" vertex="1" parent="1">
          <mxGeometry x="50" y="180" width="70" height="20" as="geometry" />
        </mxCell>
        <mxCell id="NvCyWqz4otH2OOCJtc-P-212" value="nome" style="ellipse;whiteSpace=wrap;html=1;align=center;" vertex="1" parent="1">
          <mxGeometry x="90" y="200" width="70" height="20" as="geometry" />
        </mxCell>
        <mxCell id="NvCyWqz4otH2OOCJtc-P-213" value="cognome" style="ellipse;whiteSpace=wrap;html=1;align=center;" vertex="1" parent="1">
          <mxGeometry x="15" y="201.5" width="70" height="20" as="geometry" />
        </mxCell>
        <mxCell id="NvCyWqz4otH2OOCJtc-P-214" value="sesso" style="ellipse;whiteSpace=wrap;html=1;align=center;" vertex="1" parent="1">
          <mxGeometry x="-40" y="215" width="70" height="20" as="geometry" />
        </mxCell>
        <mxCell id="NvCyWqz4otH2OOCJtc-P-215" value="mail" style="ellipse;whiteSpace=wrap;html=1;align=center;" vertex="1" parent="1">
          <mxGeometry x="30" y="150" width="70" height="20" as="geometry" />
        </mxCell>
        <mxCell id="NvCyWqz4otH2OOCJtc-P-216" value="psw" style="ellipse;whiteSpace=wrap;html=1;align=center;" vertex="1" parent="1">
          <mxGeometry y="175" width="50" height="20" as="geometry" />
        </mxCell>
        <mxCell id="NvCyWqz4otH2OOCJtc-P-217" value="data_nascita" style="ellipse;whiteSpace=wrap;html=1;align=center;" vertex="1" parent="1">
          <mxGeometry x="-50" y="150" width="80" height="20" as="geometry" />
        </mxCell>
        <mxCell id="NvCyWqz4otH2OOCJtc-P-219" value="" style="endArrow=none;html=1;rounded=0;exitX=1;exitY=0.5;exitDx=0;exitDy=0;entryX=0;entryY=0.5;entryDx=0;entryDy=0;" edge="1" parent="1" source="NvCyWqz4otH2OOCJtc-P-218" target="JDJX8nyuoipbQ4rnlp5O-28">
          <mxGeometry width="50" height="50" relative="1" as="geometry">
            <mxPoint x="290" y="290" as="sourcePoint" />
            <mxPoint x="340" y="240" as="targetPoint" />
          </mxGeometry>
        </mxCell>
      </root>
    </mxGraphModel>
  </diagram>
</mxfile>
